<svg width="24" height="21" viewBox="0 0 24 21" fill="none" xmlns="http://www.w3.org/2000/svg">
<path d="M21.3742 5.26562H2.03793C1.5785 5.26562 1.20605 5.6385 1.20605 6.09846V20.1532C1.20605 20.6131 1.5785 20.986 2.03793 20.986H21.3742C21.8336 20.986 22.2061 20.6131 22.2061 20.1532V6.09846C22.2061 5.6385 21.8336 5.26562 21.3742 5.26562Z" fill="#4989F5"/>
<path d="M21.1315 5.14648H2.2574C1.67274 5.14648 1.21777 9.67647 1.21777 10.2618L11.5538 20.985H21.1315C21.7179 20.9834 22.1929 20.5078 22.1945 19.9207V6.21056C22.1928 5.62351 21.7178 5.14809 21.1315 5.14648Z" fill="url(#paint0_linear)"/>
<path d="M6.00098 7.89757H12.001V0.0136719H6.8994L6.00098 7.89757Z" fill="#3C4BA6"/>
<path d="M18 7.89757H12V0.0136719H17.1016L18 7.89757ZM22.205 1.50816L22.2124 1.53503C22.2106 1.52555 22.207 1.51674 22.205 1.50816Z" fill="#7BABF7"/>
<path d="M22.2134 1.53503L22.2059 1.50816C22.0157 0.636105 21.2447 0.0142364 20.3531 0.0136719H17.1025L18.0003 7.89779H24.0003L22.2134 1.53503Z" fill="#3F51B5"/>
<path d="M1.79553 1.50781L1.78809 1.53469C1.78989 1.5252 1.7935 1.51639 1.79553 1.50781Z" fill="#7BABF7"/>
<path d="M1.78805 1.53504L1.79549 1.50816C1.98571 0.636105 2.75668 0.0142364 3.64827 0.0136719H6.8991L6 7.8978H0L1.78805 1.53504Z" fill="#7BABF7"/>
<path fill-rule="evenodd" clip-rule="evenodd" d="M6.01126 7.89648C6.01126 9.55429 4.66887 10.8982 3.01296 10.8982C1.35705 10.8982 0.0146484 9.55429 0.0146484 7.89648H6.01126Z" fill="#709BE0"/>
<path fill-rule="evenodd" clip-rule="evenodd" d="M12.0074 7.89648C12.0074 9.55429 10.665 10.8982 9.00905 10.8982C7.35314 10.8982 6.01074 9.55429 6.01074 7.89648H12.0074Z" fill="#3C4BA6"/>
<path fill-rule="evenodd" clip-rule="evenodd" d="M18.0044 7.89648C18.0044 9.55429 16.662 10.8982 15.0061 10.8982C13.3502 10.8982 12.0078 9.55429 12.0078 7.89648H18.0044Z" fill="#709BE0"/>
<path fill-rule="evenodd" clip-rule="evenodd" d="M24.0005 7.89648C24.0005 9.55429 22.6581 10.8982 21.0022 10.8982C19.3463 10.8982 18.0039 9.55429 18.0039 7.89648H24.0005Z" fill="#3C4BA6"/>
<path d="M21.0022 16.0275C20.9916 15.8846 20.974 15.7541 20.949 15.5874H17.6783C17.6783 16.0454 17.6783 16.5451 17.6765 17.0033H19.5712C19.531 17.2168 19.449 17.4203 19.3299 17.602C19.2109 17.7837 19.0572 17.9401 18.8776 18.0622C18.8776 18.0622 18.8776 18.0543 18.8763 18.0541C18.6444 18.2065 18.3831 18.3086 18.1093 18.3537C17.8349 18.404 17.5535 18.4028 17.2795 18.3501C17.0013 18.2925 16.7378 18.1782 16.5056 18.0143C16.1628 17.7709 15.8983 17.4327 15.7448 17.041C15.733 17.0105 15.7222 16.9798 15.7111 16.9487V16.9453L15.7141 16.943C15.565 16.505 15.5646 16.03 15.713 15.5917C15.8174 15.2843 15.9894 15.0042 16.2162 14.772C16.7482 14.221 17.5432 14.0137 18.276 14.235C18.5571 14.3212 18.8138 14.4726 19.0256 14.6767L19.6648 14.0367C19.7776 13.9226 19.8947 13.8122 20.0032 13.6943C19.679 13.3917 19.2986 13.1558 18.8835 13.0002C18.128 12.7259 17.3016 12.7187 16.5414 12.9796C16.515 12.9887 16.4887 12.9981 16.4625 13.0078C15.6424 13.3165 14.9678 13.9218 14.5718 14.7042C14.432 14.9812 14.3302 15.2757 14.2691 15.58C13.907 17.3814 15.005 19.1546 16.7776 19.6312C17.3571 19.7866 17.9731 19.7827 18.5571 19.6499C19.0877 19.53 19.5783 19.2748 19.9813 18.909C20.4018 18.5217 20.7031 18.0057 20.861 17.4577C20.993 16.9932 21.0408 16.5089 21.0022 16.0275Z" fill="white"/>
<defs>
<linearGradient id="paint0_linear" x1="1.21777" y1="13.0656" x2="22.1943" y2="13.0656" gradientUnits="userSpaceOnUse">
<stop offset="0.03" stop-color="#4079D8"/>
<stop offset="1" stop-color="#4989F5"/>
</linearGradient>
</defs>
</svg>
