<svg width="32" height="32" viewBox="0 0 32 32" fill="none" xmlns="http://www.w3.org/2000/svg">
<path fill-rule="evenodd" clip-rule="evenodd" d="M19.0521 13.7858L23.5 11.7588C23.5 15.3074 21.049 18.9739 18.8745 22.4666L15.147 28L16.7778 17.8969L19.0521 13.7858Z" fill="#E00000"/>
<path d="M16.0001 19.0529C20.1568 19.0529 23.5265 15.6832 23.5265 11.5265C23.5265 7.36971 20.1568 4 16.0001 4C11.8433 4 8.47363 7.36971 8.47363 11.5265C8.47363 15.6832 11.8433 19.0529 16.0001 19.0529Z" fill="#FF3333"/>
<path d="M16 14.5255C17.6562 14.5255 18.9989 13.1829 18.9989 11.5267C18.9989 9.87045 17.6562 8.52783 16 8.52783C14.3438 8.52783 13.0012 9.87045 13.0012 11.5267C13.0012 13.1829 14.3438 14.5255 16 14.5255Z" fill="white"/>
</svg>
