<svg width="34" height="34" viewBox="0 0 34 34" fill="none" xmlns="http://www.w3.org/2000/svg">
<path d="M17 1C19.1012 1 21.1817 1.41385 23.1229 2.21793C25.0641 3.022 26.828 4.20055 28.3137 5.68629C29.7994 7.17203 30.978 8.93586 31.7821 10.8771C32.5861 12.8183 33 14.8989 33 17C33 19.1012 32.5861 21.1817 31.7821 23.1229C30.978 25.0641 29.7994 26.828 28.3137 28.3137C26.828 29.7994 25.0641 30.978 23.1229 31.7821C21.1817 32.5861 19.1011 33 17 33C14.8988 33 12.8183 32.5861 10.8771 31.7821C8.93585 30.978 7.17202 29.7994 5.68629 28.3137C4.20055 26.828 3.022 25.0641 2.21792 23.1229C1.41385 21.1817 0.999999 19.1011 1 17C1 14.8988 1.41385 12.8183 2.21793 10.8771C3.02201 8.93585 4.20056 7.17202 5.6863 5.68628C7.17204 4.20055 8.93586 3.022 10.8771 2.21792C12.8183 1.41385 14.8989 0.999999 17 1L17 1Z" stroke="#D3DCEC" stroke-linecap="round"/>
<path d="M17 1C20.4162 1 23.7428 2.09344 26.4928 4.12028C29.2428 6.14713 31.2719 9.00096 32.283 12.2641C33.2942 15.5273 33.2344 19.0284 32.1124 22.2551C30.9903 25.4818 28.865 28.2647 26.0473 30.1964" stroke="#283BC1" stroke-width="2" stroke-linecap="round"/>
</svg>
